<svg width="50" height="50" viewBox="0 0 50 50" fill="none" xmlns="http://www.w3.org/2000/svg">
<path d="M15.6138 11.4775C15.6138 10.7749 16.1832 10.2045 16.8863 10.2045H26.7204C27.4235 10.2045 27.9929 10.7744 27.9929 11.4775C27.9929 12.1805 27.4235 12.7504 26.7204 12.7504H16.8863C16.1832 12.7504 15.6138 12.1805 15.6138 11.4775ZM16.7266 18.9693H33.2863C33.9893 18.9693 34.5587 18.3994 34.5587 17.6963C34.5587 16.9933 33.9893 16.4234 33.2863 16.4234H16.7266C16.0235 16.4234 15.4541 16.9933 15.4541 17.6963C15.4541 18.3994 16.0235 18.9693 16.7266 18.9693ZM16.7266 25.1882H33.2863C33.9893 25.1882 34.5587 24.6183 34.5587 23.9152C34.5587 23.2122 33.9893 22.6423 33.2863 22.6423H16.7266C16.0235 22.6423 15.4541 23.2122 15.4541 23.9152C15.4541 24.6183 16.0235 25.1882 16.7266 25.1882ZM49.3975 20.7912V48.4724C49.3975 49.1754 48.8281 49.7448 48.125 49.7448H1.87401C1.17095 49.7448 0.601562 49.1754 0.601562 48.4724V20.7912C0.601562 20.4132 0.76942 20.0545 1.06024 19.8127L8.81636 13.3657V6.27134C8.81636 5.56879 9.38575 4.99838 10.0888 4.99838H18.8485L24.1842 0.549909C24.6577 0.156031 25.3444 0.156541 25.8158 0.551439L31.1306 4.99838H33.5322C33.875 4.99838 34.2031 5.13664 34.4424 5.38154C38.6954 9.73562 40.822 11.9198 40.822 11.9198C41.0536 12.1576 41.1827 12.4759 41.1827 12.8076V13.356L48.9388 19.8122C49.2296 20.055 49.3975 20.4132 49.3975 20.7912ZM3.14646 23.0361V44.9213L15.2072 30.2545L3.14646 23.0361ZM4.56789 47.1999H45.4312L32.5837 31.5764L25.6531 35.7244C25.4516 35.8443 25.2255 35.905 24.9995 35.905C24.7735 35.905 24.547 35.8453 24.346 35.7244L17.4153 31.5764L4.56789 47.1999ZM46.8526 44.9213V23.0361L34.7919 30.2545L46.8526 44.9213ZM34.8051 11.3907H36.7511C36.2041 10.83 35.5521 10.1622 34.8051 9.39634V11.3907ZM41.1832 16.6683V23.4627L45.9317 20.6208L41.1832 16.6683ZM22.8235 4.99838H27.1643L24.998 3.18562L22.8235 4.99838ZM11.3618 7.5443V24.9866L24.9995 33.1489L38.6378 24.9861V13.9361H33.5327C32.8296 13.9361 32.2602 13.3662 32.2602 12.6632V7.5443H11.3618ZM8.81636 16.6754L4.06891 20.6213L8.81636 23.4627V16.6754Z" fill="white"/>
</svg>
