<svg width="56" height="56" viewBox="0 0 56 56" fill="none" xmlns="http://www.w3.org/2000/svg">
<path d="M27.9502 0.25C12.6507 0.25 0.200195 12.7005 0.200195 28C0.200195 43.2995 12.6507 55.75 27.9502 55.75C43.2497 55.75 55.7002 43.2995 55.7002 28C55.7002 12.7005 43.2497 0.25 27.9502 0.25ZM27.9502 4.875C40.7499 4.875 51.0752 15.2003 51.0752 28C51.0808 33.536 49.0957 38.8895 45.482 43.0835C41.8684 47.2775 36.8672 50.0323 31.3912 50.8452V34.7433H37.9772L39.0109 28.0532H31.3912V24.3994C31.3912 21.6244 32.3046 19.157 34.9016 19.157H39.0756V13.3203C38.3426 13.2208 36.7909 13.0057 33.8586 13.0057C27.7351 13.0057 24.1461 16.2386 24.1461 23.6063V28.0532H17.8515V34.7433H24.1461V50.7874C18.7459 49.8985 13.8376 47.1186 10.2982 42.9442C6.75878 38.7698 4.81893 33.4729 4.8252 28C4.8252 15.2003 15.1505 4.875 27.9502 4.875Z" fill="#525252"/>
</svg>
