<svg width="59" height="58" viewBox="0 0 59 58" fill="none" xmlns="http://www.w3.org/2000/svg">
<path fill-rule="evenodd" clip-rule="evenodd" d="M17.6165 0.344362C20.6908 0.202837 21.671 0.171387 29.502 0.171387C37.3331 0.171387 38.3133 0.205458 41.3849 0.344362C44.4565 0.483266 46.5532 0.973362 48.3877 1.68361C50.3088 2.40958 52.0517 3.5444 53.4931 5.01207C54.9608 6.4509 56.093 8.19114 56.8163 10.1148C57.5292 11.9494 58.0167 14.0461 58.1582 17.1125C58.2997 20.1919 58.3312 21.1721 58.3312 29.0006C58.3312 36.8316 58.2971 37.8118 58.1582 40.886C58.0193 43.9524 57.5292 46.0491 56.8163 47.8837C56.093 49.8076 54.9589 51.5507 53.4931 52.9917C52.0517 54.4593 50.3088 55.5915 48.3877 56.3149C46.5532 57.0277 44.4565 57.5152 41.3901 57.6567C38.3133 57.7983 37.3331 57.8297 29.502 57.8297C21.671 57.8297 20.6908 57.7957 17.6165 57.6567C14.5502 57.5178 12.4535 57.0277 10.6189 56.3149C8.69501 55.5914 6.9519 54.4574 5.51091 52.9917C4.04424 51.552 2.90925 49.8097 2.18507 47.8863C1.47483 46.0517 0.987352 43.955 0.845827 40.8887C0.704302 37.8092 0.672852 36.829 0.672852 29.0006C0.672852 21.1695 0.706922 20.1893 0.845827 17.1177C0.984731 14.0461 1.47483 11.9494 2.18507 10.1148C2.91032 8.19135 4.04618 6.4491 5.51353 5.00945C6.95247 3.54309 8.69384 2.40812 10.6163 1.68361C12.4509 0.973362 14.5475 0.485887 17.6139 0.344362H17.6165ZM41.1516 5.53361C38.1115 5.39471 37.1994 5.36588 29.502 5.36588C21.8046 5.36588 20.8926 5.39471 17.8524 5.53361C15.0403 5.66203 13.5149 6.13116 12.4981 6.52691C11.1536 7.05107 10.1917 7.67221 9.1827 8.68123C8.22621 9.61176 7.49011 10.7446 7.02837 11.9966C6.63263 13.0135 6.1635 14.5388 6.03508 17.3509C5.89617 20.3911 5.86734 21.3032 5.86734 29.0006C5.86734 36.6979 5.89617 37.61 6.03508 40.6502C6.1635 43.4623 6.63263 44.9876 7.02837 46.0045C7.48964 47.2547 8.22609 48.3895 9.1827 49.3199C10.1131 50.2765 11.2479 51.0129 12.4981 51.4742C13.5149 51.8699 15.0403 52.3391 17.8524 52.4675C20.8926 52.6064 21.802 52.6352 29.502 52.6352C37.202 52.6352 38.1115 52.6064 41.1516 52.4675C43.9638 52.3391 45.4891 51.8699 46.506 51.4742C47.8505 50.95 48.8123 50.3289 49.8213 49.3199C50.7779 48.3895 51.5144 47.2547 51.9757 46.0045C52.3714 44.9876 52.8405 43.4623 52.969 40.6502C53.1079 37.61 53.1367 36.6979 53.1367 29.0006C53.1367 21.3032 53.1079 20.3911 52.969 17.3509C52.8405 14.5388 52.3714 13.0135 51.9757 11.9966C51.4515 10.6521 50.8304 9.69025 49.8213 8.68123C48.8908 7.72482 47.758 6.98873 46.506 6.52691C45.4891 6.13116 43.9638 5.66203 41.1516 5.53361ZM25.8197 37.8878C27.8762 38.7438 30.1661 38.8594 32.2983 38.2147C34.4304 37.57 36.2727 36.205 37.5103 34.3529C38.7479 32.5009 39.3041 30.2766 39.0839 28.0599C38.8637 25.8433 37.8808 23.7719 36.3031 22.1995C35.2973 21.1943 34.0812 20.4247 32.7422 19.946C31.4033 19.4672 29.9749 19.2913 28.5598 19.4309C27.1447 19.5705 25.7782 20.022 24.5586 20.7531C23.339 21.4842 22.2967 22.4766 21.5066 23.6589C20.7166 24.8412 20.1986 26.1839 19.9897 27.5904C19.7809 28.997 19.8866 30.4323 20.2991 31.7931C20.7116 33.1539 21.4206 34.4063 22.3752 35.4602C23.3299 36.514 24.5063 37.3432 25.8197 37.8878ZM19.0239 18.5225C20.3999 17.1465 22.0335 16.055 23.8313 15.3103C25.6292 14.5656 27.5561 14.1823 29.502 14.1823C31.448 14.1823 33.3749 14.5656 35.1727 15.3103C36.9706 16.055 38.6041 17.1465 39.9801 18.5225C41.3561 19.8985 42.4476 21.532 43.1923 23.3299C43.937 25.1277 44.3203 27.0546 44.3203 29.0006C44.3203 30.9465 43.937 32.8734 43.1923 34.6713C42.4476 36.4691 41.3561 38.1026 39.9801 39.4786C37.2011 42.2576 33.4321 43.8188 29.502 43.8188C25.572 43.8188 21.8029 42.2576 19.0239 39.4786C16.245 36.6997 14.6838 32.9306 14.6838 29.0006C14.6838 25.0705 16.245 21.3014 19.0239 18.5225ZM47.6067 16.3891C47.9477 16.0674 48.2207 15.6806 48.4095 15.2516C48.5983 14.8225 48.6991 14.36 48.706 13.8913C48.7128 13.4226 48.6255 12.9572 48.4493 12.5229C48.2731 12.0885 48.0115 11.6939 47.68 11.3624C47.3486 11.031 46.954 10.7694 46.5196 10.5932C46.0852 10.417 45.6199 10.3297 45.1512 10.3365C44.6825 10.3433 44.2199 10.4441 43.7909 10.633C43.3618 10.8218 42.975 11.0947 42.6534 11.4357C42.0278 12.0989 41.6853 12.9797 41.6986 13.8913C41.7119 14.8028 42.0799 15.6733 42.7245 16.3179C43.3692 16.9626 44.2396 17.3306 45.1512 17.3439C46.0627 17.3572 46.9436 17.0147 47.6067 16.3891Z" fill="#525252"/>
</svg>
