<svg width="30" height="30" viewBox="0 0 30 30" fill="none" xmlns="http://www.w3.org/2000/svg">
<path d="M9.36855 6.88662C9.36855 6.46509 9.71019 6.12285 10.132 6.12285H16.0325C16.4544 6.12285 16.796 6.46479 16.796 6.88662C16.796 7.30846 16.4544 7.6504 16.0325 7.6504H10.132C9.71019 7.6504 9.36855 7.30846 9.36855 6.88662ZM10.0362 11.3817H19.972C20.3939 11.3817 20.7355 11.0398 20.7355 10.6179C20.7355 10.1961 20.3939 9.85417 19.972 9.85417H10.0362C9.61437 9.85417 9.27274 10.1961 9.27274 10.6179C9.27274 11.0398 9.61437 11.3817 10.0362 11.3817ZM10.0362 15.1131H19.972C20.3939 15.1131 20.7355 14.7711 20.7355 14.3493C20.7355 13.9274 20.3939 13.5855 19.972 13.5855H10.0362C9.61437 13.5855 9.27274 13.9274 9.27274 14.3493C9.27274 14.7711 9.61437 15.1131 10.0362 15.1131ZM29.6388 12.4749V29.0836C29.6388 29.5054 29.2971 29.847 28.8753 29.847H1.12468C0.702839 29.847 0.361206 29.5054 0.361206 29.0836V12.4749C0.361206 12.2481 0.46192 12.0328 0.63641 11.8877L5.29008 8.01958V3.76295C5.29008 3.34142 5.63172 2.99917 6.05355 2.99917H11.3094L14.5108 0.330092C14.7949 0.0937652 15.2069 0.0940714 15.4898 0.33101L18.6787 2.99917H20.1196C20.3253 2.99917 20.5221 3.08213 20.6657 3.22907C23.2175 5.84152 24.4935 7.15203 24.4935 7.15203C24.6324 7.29468 24.7099 7.4857 24.7099 7.68468V8.01377L29.3636 11.8874C29.538 12.0332 29.6388 12.2481 29.6388 12.4749ZM1.88815 13.8218V26.9529L9.12457 18.1528L1.88815 13.8218ZM2.741 28.3201H27.259L19.5505 18.946L15.3921 21.4348C15.2712 21.5067 15.1356 21.5432 15 21.5432C14.8644 21.5432 14.7285 21.5073 14.6078 21.4348L10.4495 18.946L2.741 28.3201ZM28.1118 26.9529V13.8218L20.8754 18.1528L28.1118 26.9529ZM20.8834 6.83458H22.0509C21.7227 6.49815 21.3315 6.09744 20.8834 5.63795V6.83458ZM24.7102 10.0011V14.0777L27.5593 12.3726L24.7102 10.0011ZM13.6944 2.99917H16.2989L14.9991 1.91152L13.6944 2.99917ZM6.81733 4.52672V14.9921L15 19.8895L23.1829 14.9918V8.36183H20.1199C19.698 8.36183 19.3564 8.01989 19.3564 7.59805V4.52672H6.81733ZM5.29008 10.0054L2.44161 12.3729L5.29008 14.0777V10.0054Z" fill="#DE1B41"/>
</svg>
