<svg width="50" height="58" viewBox="0 0 50 58" fill="none" xmlns="http://www.w3.org/2000/svg">
<path d="M44.4075 5.04058C44.3902 4.87866 44.3108 4.74202 44.2 4.64058V0.839951C44.2 0.486514 43.9137 0.199951 43.56 0.199951H6.43999C6.08624 0.199951 5.79999 0.486514 5.79999 0.839951V4.63894C5.68913 4.74085 5.6098 4.87843 5.59249 5.04058L0.472493 52.8237C0.442493 53.1053 0.601243 53.3731 0.862493 53.4818L11.1025 57.7506C11.1812 57.7837 11.265 57.7999 11.3487 57.7999C11.4369 57.7999 11.5256 57.7815 11.6081 57.7449C11.7687 57.674 11.8931 57.5396 11.9519 57.3743L12.7137 55.2303L25 20.6708L37.2862 55.2303L38.0481 57.3743C38.1069 57.5396 38.2312 57.674 38.3919 57.7449C38.4744 57.7815 38.5625 57.7999 38.6512 57.7999C38.735 57.7999 38.8187 57.7834 38.8975 57.7506L49.1375 53.4818C49.3987 53.3731 49.5575 53.1053 49.5275 52.8237L44.4075 5.04058ZM43.6673 10.1412C42.875 10.0512 38.7621 9.41757 35.2001 5.95995H43.2189L43.6673 10.1412ZM37.8 1.47995H42.92V4.67995H37.8V1.47995ZM30.12 1.47995H36.52V4.67995H30.12V1.47995ZM21.16 1.47995H28.84V4.67995H27.56H24.36H21.16V1.47995ZM26.92 5.95995V10.8665L25 13.4265V5.95995H26.92ZM13.48 1.47995H19.88V4.67995H13.48V1.47995ZM7.07999 1.47995H12.2V4.67995H7.07999V1.47995ZM6.78105 5.95995H14.7998C11.2379 9.41757 7.12503 10.0512 6.33273 10.1412L6.78105 5.95995ZM10.9719 56.3093L1.79562 52.484L1.91624 51.344L11.3062 55.3675L10.9719 56.3093ZM38.2642 54.1592L25.6031 18.5456C25.5993 18.535 25.5907 18.5281 25.5864 18.5178C25.5689 18.4753 25.5425 18.4394 25.5163 18.4016C25.4946 18.3705 25.4764 18.338 25.45 18.3117C25.421 18.2825 25.3854 18.2622 25.3507 18.2387C25.3157 18.2152 25.2829 18.1908 25.244 18.1746C25.233 18.17 25.2257 18.1608 25.2144 18.1568C25.1851 18.1465 25.1555 18.1502 25.1259 18.1443C25.0839 18.1355 25.0436 18.1266 25.0001 18.1264C24.9556 18.1265 24.9144 18.1356 24.8715 18.1446C24.8428 18.1505 24.814 18.1468 24.7856 18.1568C24.7746 18.1607 24.7675 18.1696 24.7569 18.1741C24.7162 18.1909 24.6819 18.2162 24.6454 18.241C24.6124 18.2637 24.5783 18.283 24.5506 18.3109C24.5233 18.338 24.5044 18.3715 24.4821 18.4037C24.4566 18.4409 24.4308 18.476 24.4137 18.5176C24.4094 18.528 24.4007 18.5349 24.3969 18.5456L11.7358 54.1592L2.05788 50.0125L6.1946 11.4295C6.20562 11.4301 6.21511 11.4356 6.22624 11.4356C6.23999 11.4356 6.25437 11.4353 6.26812 11.4343C6.5121 11.4185 12.1316 10.9854 16.5648 5.95995H23.72V15.3465C23.72 15.6221 23.8962 15.8665 24.1575 15.9537C24.2244 15.9759 24.2925 15.9865 24.36 15.9865C24.5575 15.9865 24.7487 15.8946 24.8719 15.7306L28.0719 11.464C28.155 11.3531 28.2 11.2184 28.2 11.08V5.95995H33.4351C37.8684 10.9854 43.4879 11.4185 43.7319 11.4343C43.7462 11.4353 43.76 11.4356 43.7737 11.4356C43.7848 11.4356 43.7944 11.4301 43.8054 11.4295L47.9421 50.0125L38.2642 54.1592ZM39.0281 56.3093L38.6937 55.3675L48.0837 51.344L48.2044 52.484L39.0281 56.3093Z" fill="white"/>
</svg>
