<svg width="50" height="50" viewBox="0 0 50 50" fill="none" xmlns="http://www.w3.org/2000/svg">
<path d="M49.9901 38.3981C49.8854 37.0411 49.0059 35.7846 47.4463 34.7603C44.733 32.9781 41.909 31.2864 39.1788 29.653L38.8447 29.4519C36.2212 27.8798 33.8369 28.2909 31.5574 30.7104C31.4815 30.7892 31.3998 30.8621 31.3131 30.9286C31.2889 30.9451 31.2657 30.9629 31.2433 30.9818C30.4934 31.5297 29.2559 31.8925 28.8242 31.7227C23.9989 29.8188 20.4689 26.2474 18.331 21.1089C18.1575 20.6907 18.3778 19.5569 18.6301 19.2935C23.2011 16.0649 21.5429 12.1828 19.8975 9.54321C19.5233 8.94411 19.1516 8.34737 18.7827 7.75297C17.7496 6.08134 16.6757 4.35343 15.5848 2.67175C14.5328 1.04938 13.3202 0.15878 11.981 0.0190591C10.6787 -0.115636 9.37341 0.473404 8.09105 1.76909C7.20557 2.66572 6.36296 3.61863 5.54827 4.53436C4.78644 5.39982 3.9887 6.29444 3.17601 7.12372C-0.253249 10.6248 -0.897419 14.743 1.20461 19.7137C4.13429 26.6374 8.07709 32.6163 12.9213 37.4864C17.8154 42.4058 23.7715 46.332 30.6221 49.1576H30.628L30.6729 49.1767C32.0008 49.7195 33.4202 49.9984 34.8531 49.998C37.4606 49.9947 39.9864 49.08 41.9998 47.4096C44.033 45.7259 46.2008 43.9085 48.266 42.0359C49.8146 40.6326 50.0579 39.2817 49.9901 38.3981ZM11.7776 2.01838C12.6641 2.10985 13.4299 3.02356 13.9155 3.77142C14.9944 5.43601 16.0604 7.15488 17.0915 8.81847C17.4624 9.41555 17.8334 10.0126 18.2043 10.6097C19.9254 13.37 20.069 15.1562 18.5593 16.7343L9.56188 3.13112C10.3706 2.32596 11.1195 1.95103 11.7776 2.01838ZM40.7333 45.8586C39.4549 46.9239 37.9148 47.6215 36.2757 47.8776C34.6366 48.1338 32.9593 47.9391 31.4208 47.3141L31.3829 47.299H31.3769C18.2482 41.8821 8.71329 32.3368 3.0394 18.9246C1.2445 14.6747 1.72114 11.4712 4.59498 8.53701C5.44258 7.67155 6.25228 6.75783 7.03605 5.87427C7.40201 5.46114 7.77794 5.04097 8.15288 4.62382L17.0516 18.0722C16.3087 19.0533 16.0804 20.8867 16.4972 21.8839C17.6399 24.6331 19.1826 27.0103 21.0842 28.9564C23.0725 30.9856 25.4661 32.5655 28.1062 33.5913C29.1483 34.0024 30.6889 33.6355 31.8725 32.96L45.1967 42.0912C43.6959 43.3929 42.1802 44.6594 40.7333 45.8586ZM46.9317 40.5432C46.8669 40.6025 46.8001 40.6608 46.7323 40.7191L33.47 31.6292C34.9159 30.3053 36.1793 30.1908 37.8256 31.1768L38.1597 31.3779C40.873 33.0033 43.678 34.6859 46.3584 36.444C47.3635 37.1034 47.9479 37.8513 48.0017 38.5549C48.0506 39.1852 47.6906 39.8546 46.9317 40.5432Z" fill="white"/>
<path d="M28.5001 14.3971C29.8285 14.3987 31.1019 14.9314 32.0411 15.8783C32.9803 16.8253 33.5085 18.1091 33.5099 19.4482C33.5099 19.7148 33.6149 19.9704 33.8019 20.1589C33.9889 20.3474 34.2426 20.4533 34.507 20.4533C34.7715 20.4533 35.0251 20.3474 35.2121 20.1589C35.3991 19.9704 35.5042 19.7148 35.5042 19.4482C35.5021 17.5762 34.7635 15.7815 33.4505 14.4577C32.1374 13.1339 30.3571 12.3891 28.5001 12.3867C28.2356 12.3867 27.982 12.4926 27.795 12.6811C27.608 12.8696 27.5029 13.1253 27.5029 13.3919C27.5029 13.6585 27.608 13.9142 27.795 14.1027C27.982 14.2912 28.2356 14.3971 28.5001 14.3971Z" fill="white"/>
<path d="M28.5001 8.34289C31.421 8.34609 34.2214 9.5171 36.2869 11.599C38.3524 13.681 39.5144 16.5038 39.5178 19.4482C39.5178 19.7148 39.6229 19.9705 39.8099 20.159C39.9969 20.3475 40.2505 20.4534 40.515 20.4534C40.7794 20.4534 41.0331 20.3475 41.2201 20.159C41.4071 19.9705 41.5121 19.7148 41.5121 19.4482C41.5121 12.2159 35.6747 6.33252 28.5001 6.33252C28.2356 6.33252 27.982 6.43842 27.795 6.62693C27.608 6.81544 27.5029 7.07111 27.5029 7.33771C27.5029 7.6043 27.608 7.85997 27.795 8.04848C27.982 8.23699 28.2356 8.34289 28.5001 8.34289Z" fill="white"/>
<path d="M28.5001 2.28576C37.8874 2.28576 45.5247 9.98449 45.5247 19.4483C45.5247 19.7149 45.6298 19.9706 45.8168 20.1591C46.0038 20.3476 46.2575 20.4535 46.5219 20.4535C46.7864 20.4535 47.04 20.3476 47.227 20.1591C47.414 19.9706 47.5191 19.7149 47.5191 19.4483C47.5191 8.87678 38.9893 0.275391 28.5001 0.275391C28.2356 0.275391 27.982 0.381294 27.795 0.569803C27.608 0.758312 27.5029 1.01399 27.5029 1.28058C27.5029 1.54717 27.608 1.80284 27.795 1.99135C27.982 2.17986 28.2356 2.28576 28.5001 2.28576Z" fill="white"/>
</svg>
