<svg width="30" height="30" viewBox="0 0 30 30" fill="none" xmlns="http://www.w3.org/2000/svg">
<path d="M29.994 23.039C29.9312 22.2248 29.4035 21.4709 28.4677 20.8563C26.8398 19.787 25.1454 18.7719 23.5072 17.7919L23.3068 17.6713C21.7327 16.728 20.3021 16.9747 18.9344 18.4264C18.8888 18.4736 18.8398 18.5173 18.7878 18.5572C18.7733 18.5672 18.7594 18.5778 18.7459 18.5892C18.296 18.9179 17.5535 19.1356 17.2945 19.0337C14.3993 17.8914 12.2813 15.7485 10.9985 12.6654C10.8944 12.4145 11.0267 11.7342 11.178 11.5762C13.9206 9.63901 12.9257 7.30979 11.9385 5.72602C11.7139 5.36657 11.4909 5.00852 11.2696 4.65188C10.6497 3.6489 10.0054 2.61215 9.35083 1.60315C8.71962 0.629723 7.99209 0.0953657 7.18857 0.0115331C6.40719 -0.0692839 5.62401 0.28414 4.8546 1.06155C4.3233 1.59953 3.81774 2.17128 3.32893 2.72071C2.87183 3.23999 2.39319 3.77676 1.90557 4.27433C-0.151986 6.37497 -0.538488 8.84592 0.72273 11.8283C2.48054 15.9825 4.84622 19.5699 7.75277 22.4919C10.6892 25.4436 14.2629 27.7993 18.3732 29.4947H18.3768L18.4037 29.5061C19.2004 29.8318 20.0521 29.9991 20.9118 29.9989C22.4763 29.9969 23.9918 29.4481 25.1998 28.4459C26.4198 27.4356 27.7205 26.3452 28.9595 25.2216C29.8887 24.3797 30.0347 23.5691 29.994 23.039ZM7.06651 1.21112C7.5984 1.26601 8.0579 1.81424 8.34927 2.26295C8.99663 3.2617 9.63622 4.29303 10.2549 5.29118C10.4774 5.64943 10.7 6.00767 10.9226 6.36592C11.9552 8.02207 12.0414 9.0938 11.1356 10.0407L5.73709 1.87877C6.22231 1.39568 6.67164 1.17071 7.06651 1.21112ZM24.44 27.5153C23.6729 28.1544 22.7488 28.573 21.7654 28.7267C20.7819 28.8804 19.7755 28.7636 18.8524 28.3886L18.8297 28.3795H18.8261C10.9489 25.1293 5.22794 19.4022 1.8236 11.3549C0.746662 8.80491 1.03265 6.88279 2.75695 5.12231C3.26551 4.60303 3.75133 4.0548 4.22159 3.52466C4.44117 3.27678 4.66673 3.02468 4.89169 2.77439L10.2309 10.8434C9.78519 11.4321 9.64818 12.5321 9.89827 13.1304C10.5839 14.7799 11.5095 16.2063 12.6505 17.3739C13.8435 18.5914 15.2796 19.5394 16.8637 20.1549C17.4889 20.4015 18.4133 20.1814 19.1235 19.7761L27.118 25.2548C26.2175 26.0358 25.3081 26.7957 24.44 27.5153ZM28.159 24.326C28.1201 24.3616 28.08 24.3966 28.0394 24.4315L20.082 18.9776C20.9495 18.1833 21.7075 18.1145 22.6953 18.7062L22.8958 18.8268C24.5237 19.8021 26.2068 20.8117 27.815 21.8665C28.4181 22.2621 28.7687 22.7109 28.801 23.133C28.8303 23.5112 28.6143 23.9129 28.159 24.326Z" fill="#DE1B41"/>
<path d="M17.1003 8.63811C17.8973 8.63907 18.6614 8.95869 19.2249 9.52686C19.7884 10.095 20.1053 10.8653 20.1061 11.6687C20.1061 11.8287 20.1691 11.9821 20.2813 12.0952C20.3936 12.2083 20.5457 12.2719 20.7044 12.2719C20.8631 12.2719 21.0153 12.2083 21.1275 12.0952C21.2397 11.9821 21.3027 11.8287 21.3027 11.6687C21.3014 10.5456 20.8583 9.46873 20.0705 8.67446C19.2827 7.88018 18.2145 7.43332 17.1003 7.43188C16.9416 7.43188 16.7894 7.49543 16.6772 7.60853C16.565 7.72164 16.502 7.87504 16.502 8.035C16.502 8.19495 16.565 8.34836 16.6772 8.46146C16.7894 8.57457 16.9416 8.63811 17.1003 8.63811Z" fill="#DE1B41"/>
<path d="M17.1003 5.00578C18.8528 5.0077 20.5331 5.71031 21.7724 6.95946C23.0117 8.20862 23.7088 9.90231 23.7109 11.669C23.7109 11.8289 23.7739 11.9823 23.8861 12.0954C23.9983 12.2085 24.1505 12.2721 24.3092 12.2721C24.4679 12.2721 24.62 12.2085 24.7322 12.0954C24.8444 11.9823 24.9075 11.8289 24.9075 11.669C24.9075 7.32958 21.405 3.79956 17.1003 3.79956C16.9416 3.79956 16.7894 3.8631 16.6772 3.97621C16.565 4.08931 16.502 4.24272 16.502 4.40267C16.502 4.56263 16.565 4.71603 16.6772 4.82914C16.7894 4.94224 16.9416 5.00578 17.1003 5.00578Z" fill="#DE1B41"/>
<path d="M17.1003 1.37151C22.7327 1.37151 27.315 5.99074 27.315 11.669C27.315 11.829 27.3781 11.9824 27.4903 12.0955C27.6025 12.2086 27.7547 12.2722 27.9133 12.2722C28.072 12.2722 28.2242 12.2086 28.3364 12.0955C28.4486 11.9824 28.5116 11.829 28.5116 11.669C28.5116 5.32611 23.3938 0.165283 17.1003 0.165283C16.9416 0.165283 16.7894 0.228825 16.6772 0.341931C16.565 0.455036 16.502 0.60844 16.502 0.768395C16.502 0.928351 16.565 1.08175 16.6772 1.19486C16.7894 1.30797 16.9416 1.37151 17.1003 1.37151Z" fill="#DE1B41"/>
</svg>
