<svg width="30" height="50" viewBox="0 0 30 50" fill="none" xmlns="http://www.w3.org/2000/svg">
<path d="M0.332947 15.3433C0.332947 7.24325 6.89993 0.67627 15 0.67627C23.1001 0.67627 29.667 7.24325 29.667 15.3433C29.667 27.0794 19.4457 29.8769 15.9295 42.9996L15 46.468L14.0705 42.9996C10.5543 29.8769 0.332947 27.0794 0.332947 15.3433ZM8.62081 47.3975H21.3792V49.3239H8.62081V47.3975ZM15 8.74621C18.6431 8.74621 21.5977 11.7002 21.5977 15.3433C21.5977 18.987 18.6431 21.941 15 21.941C11.3569 21.941 8.4023 18.9864 8.4023 15.3433C8.4023 11.7002 11.3569 8.74621 15 8.74621ZM15 10.6726C12.4204 10.6726 10.3293 12.7638 10.3293 15.3433C10.3293 17.9234 12.4204 20.014 15 20.014C17.5795 20.014 19.6707 17.9234 19.6707 15.3433C19.6707 12.7638 17.5795 10.6726 15 10.6726ZM27.7406 15.3433C27.7406 8.30684 22.0365 2.60266 15 2.60266C7.96352 2.60266 2.25934 8.30684 2.25934 15.3433C2.25934 25.3024 10.8507 28.5357 15 39.5986C19.1492 28.5357 27.7406 25.3019 27.7406 15.3433Z" fill="white"/>
</svg>
