<svg width="18" height="30" viewBox="0 0 18 30" fill="none" xmlns="http://www.w3.org/2000/svg">
<path d="M0.200195 9.20599C0.200195 4.34595 4.14038 0.405762 9.00042 0.405762C13.8605 0.405762 17.8006 4.34595 17.8006 9.20599C17.8006 16.2477 11.6678 17.9261 9.55814 25.7998L9.00042 27.8808L8.4427 25.7998C6.333 17.9261 0.200195 16.2477 0.200195 9.20599ZM5.17291 28.4385H12.8279V29.5943H5.17291V28.4385ZM9.00042 5.24773C11.1863 5.24773 12.959 7.0201 12.959 9.20599C12.959 11.3922 11.1863 13.1646 9.00042 13.1646C6.81454 13.1646 5.04181 11.3919 5.04181 9.20599C5.04181 7.0201 6.81454 5.24773 9.00042 5.24773ZM9.00042 6.40356C7.45269 6.40356 6.198 7.65826 6.198 9.20599C6.198 10.7541 7.45269 12.0084 9.00042 12.0084C10.5482 12.0084 11.8028 10.7541 11.8028 9.20599C11.8028 7.65826 10.5482 6.40356 9.00042 6.40356ZM16.6448 9.20599C16.6448 4.9841 13.2223 1.5616 9.00042 1.5616C4.77854 1.5616 1.35603 4.9841 1.35603 9.20599C1.35603 15.1815 6.51087 17.1214 9.00042 23.7592C11.49 17.1214 16.6448 15.1811 16.6448 9.20599Z" fill="#DE1B41"/>
</svg>
