<svg width="80" height="57" viewBox="0 0 80 57" fill="none" xmlns="http://www.w3.org/2000/svg">
<path d="M17.1356 0V2.29537L10.6412 19.3292L10.131 20.6344L10.1422 20.6375L0 47.2385L24.773 56.9319L25.0357 56.4482C25.1184 56.3961 25.1861 56.3202 25.2216 56.2255L25.366 55.84L39.6501 29.534L54.5272 56.9319L66.8759 52.1002L78.6198 47.5642C78.691 47.5359 78.7501 47.4905 78.7978 47.4349L79.3 47.2386L62.1646 2.29549V0.000119654L40.4341 0.310526L40.4287 0.433052H38.8705L38.8652 0.310526L17.1356 0ZM17.99 2.37308H38.0987L39.2183 28.5385L26.9147 51.1965C26.8633 51.108 26.7857 51.0346 26.6859 50.996L3.03646 41.8621C3.01481 41.8527 2.99273 41.8495 2.97068 41.8432L10.9719 20.8576L22.1506 23.8382L26.4965 13.0939C26.5758 13.0317 26.6371 12.9465 26.6628 12.8449L26.7712 12.4151L27.8514 9.74418L16.2439 7.03023L17.99 2.45033L17.99 2.37308ZM38.9536 2.37308H40.3457L39.6499 18.645L38.9536 2.37308ZM41.2012 2.37308H61.3102V2.45147L61.3375 2.52499L62.9213 6.67902L51.2661 9.404L52.3464 12.0749L52.4547 12.5047C52.4805 12.6064 52.5418 12.6915 52.621 12.7538L56.9669 23.498L68.1927 20.505L76.4323 42.1166L52.9129 51.2004C52.7371 51.2682 52.6253 51.442 52.6164 51.6219L40.0818 28.5385L41.2012 2.37308ZM63.0552 7.54664L63.5029 9.3234L60.0295 10.1992C59.9222 9.99496 59.7612 9.82391 59.5639 9.7045C59.3665 9.58509 59.1402 9.52188 58.9095 9.52167C58.5737 9.52166 58.2516 9.65504 58.0142 9.89248C57.7767 10.1299 57.6432 10.452 57.6432 10.7878C57.6435 10.7921 57.6437 10.7964 57.6441 10.8007L53.2048 11.9199L53.1617 11.8133L52.7416 10.1469L63.0552 7.54664ZM16.0624 7.88796L26.376 10.4882L25.9559 12.1546L25.9128 12.2612L21.4735 11.1419C21.4738 11.1376 21.474 11.1333 21.4742 11.1291C21.4741 10.7932 21.3407 10.4712 21.1032 10.2338C20.8657 9.99632 20.5437 9.86292 20.2078 9.86292C19.9771 9.86313 19.7509 9.92637 19.5535 10.0458C19.3561 10.1652 19.1951 10.3362 19.0879 10.5405L15.6145 9.66468L16.0624 7.88796ZM64.0703 10.0617L67.8426 19.714L57.4758 22.4785L53.5282 12.7195L57.9437 11.6064C58.0625 11.7467 58.2105 11.8594 58.3773 11.9367C58.5442 12.0141 58.7259 12.0541 58.9098 12.0541C59.1996 12.0538 59.4806 11.954 59.7058 11.7714C59.931 11.5888 60.0867 11.3345 60.147 11.0509L64.0703 10.0617ZM15.0473 10.403L18.9706 11.3922C19.0309 11.6758 19.1866 11.9302 19.4118 12.1127C19.6369 12.2953 19.9179 12.3951 20.2078 12.3955C20.3917 12.3954 20.5734 12.3554 20.7402 12.278C20.9071 12.2007 21.0551 12.088 21.1739 11.9477L25.5894 13.0608L21.6418 22.8198L11.2779 20.056L11.4048 19.7233L15.0473 10.403ZM3.09475 42.7871L26.0367 51.6475L24.6308 55.4026L24.5458 55.5591L1.62683 46.7075L3.09475 42.7871ZM76.5035 42.9916L77.9478 46.8496L63.8915 52.3501L55.0295 55.7727L53.5616 51.8522L76.5035 42.9916Z" fill="white"/>
</svg>
