<svg width="53" height="63" viewBox="0 0 53 63" fill="none" xmlns="http://www.w3.org/2000/svg">
<path d="M30.3759 62.236C28.3758 62.236 26.9294 62.123 26.5 62.0778C25.1892 62.1908 14.2395 63.0496 7.29 59.0042L6.6459 58.62L6.7702 57.8516C6.7702 57.7273 8.6799 45.7154 4.6232 39.7716C0.103196 33.1498 0.340498 19.6124 0.351798 19.0474V0.775299H10.6009L13.0756 16.5953C13.0756 16.6744 13.9005 20.2904 26.5 20.2904C39.0995 20.2904 39.9131 16.6744 39.9244 16.6292L42.4104 0.8092H52.6595V19.07C52.6595 19.6237 52.9081 33.1498 48.3881 39.7716C44.3314 45.7267 46.2298 57.7386 46.2411 57.8516L46.3654 58.62L45.6987 59.0155C41.0205 61.7388 34.5117 62.236 30.3759 62.236ZM9.1206 57.4222C15.765 60.8122 26.2853 59.8404 26.3983 59.8178H26.6243C26.7373 59.8178 37.2576 60.8235 43.902 57.4222C43.45 54.4842 42.546 44.3029 46.501 38.4947C50.6142 32.4605 50.3769 19.2169 50.3769 19.0926V3.0353H44.3314L42.1618 16.9117C42.1618 17.3976 41.3821 22.5617 26.5 22.5617C11.6179 22.5617 10.8721 17.3976 10.8269 16.81L8.6686 3.0353H2.6118V19.07C2.6118 19.2282 2.3858 32.4831 6.4877 38.506C10.454 44.3029 9.55 54.4842 9.1206 57.4222Z" fill="white"/>
</svg>
