<svg width="48" height="65" viewBox="0 0 48 65" fill="none" xmlns="http://www.w3.org/2000/svg">
<path d="M45.7603 21.4933C43.6803 18.4533 42.6136 15.04 42.6136 11.6267V1.06667C42.6136 0.48 42.1336 0 41.547 0C40.9603 0 40.4803 0.48 40.4803 1.06667V11.6267C40.4803 18.7733 33.067 24.5333 24.0003 24.5333C14.9336 24.5333 7.52031 18.7733 7.52031 11.6267V1.06667C7.52031 0.48 7.04031 0 6.45364 0C5.86698 0 5.38698 0.48 5.38698 1.06667V11.6267C5.38698 15.04 4.32031 18.4533 2.24031 21.4933C0.960312 23.36 0.320312 25.5467 0.320312 27.84C0.320312 29.0133 0.533646 30.24 0.853646 31.36C4.26698 41.8133 5.92031 51.3067 5.92031 60.3733V62.9867C5.92031 63.5733 6.40031 64.0533 6.98698 64.0533H40.9603C41.547 64.0533 42.027 63.5733 42.027 62.9867V60.3733C42.027 51.36 43.6803 41.8667 47.0936 31.36C47.467 30.24 47.627 29.0667 47.627 27.84C47.6803 25.5467 47.0403 23.36 45.7603 21.4933ZM45.1203 30.6133C41.6536 41.28 39.947 50.9867 39.947 60.2667V61.8133H8.10698V60.2667C8.10698 50.9867 6.40031 41.28 2.93364 30.6133C2.61365 29.7067 2.50698 28.7467 2.50698 27.7867C2.50698 25.9733 3.04031 24.16 4.05364 22.6667C5.22698 20.9067 6.13364 19.04 6.72031 17.12C9.38698 22.72 16.1603 26.6667 24.0003 26.6667C31.8403 26.6667 38.6136 22.72 41.3336 17.12C41.9203 19.04 42.827 20.9067 44.0003 22.6667C45.0136 24.16 45.547 25.9733 45.547 27.7867C45.547 28.7467 45.387 29.7067 45.1203 30.6133Z" fill="white"/>
</svg>
