<svg width="80" height="64" viewBox="0 0 80 64" fill="none" xmlns="http://www.w3.org/2000/svg">
<path d="M5.54138 25.5767L17.1066 23.1638C17.7723 23.014 18.4213 23.4467 18.5544 24.1123C18.5877 24.1955 18.5877 24.2954 18.5877 24.3786V61.5205H60.7385V24.3786C60.7385 23.6797 61.2876 23.1305 61.9699 23.1305C62.103 23.1305 62.2195 23.1472 62.3193 23.1804L73.7848 25.5767L76.647 12.3141L53.1836 3.01196C52.7676 6.04056 51.3531 8.75299 49.2897 10.7998C46.8102 13.2626 43.3989 14.7769 39.6547 14.7769C35.9106 14.7769 32.5159 13.2626 30.0364 10.7998C27.9564 8.75299 26.5419 6.04056 26.1425 3.01196L2.67918 12.3141L5.54138 25.5767ZM27.5403 0.0332813C31.6007 0.74883 35.6443 1.09828 39.6547 1.08164C43.6984 1.08164 47.7421 0.732189 51.8024 0.0332813C52.0188 -0.0166407 52.2684 0 52.518 0.0832033L78.544 10.3838C79.0931 10.6167 79.4259 11.1992 79.2928 11.7982L75.9314 27.3073C75.7983 27.973 75.1493 28.389 74.4837 28.2558L63.2179 25.8929V62.7519C63.2179 63.4342 62.6522 64 61.9699 64H17.3563C16.674 64 16.1082 63.4342 16.1082 62.7519V25.8929L4.85911 28.2558C4.19348 28.389 3.52786 27.973 3.39473 27.3073L0.0333172 11.8482C-0.116449 11.2491 0.199724 10.6167 0.782147 10.3838L26.7582 0.116485C26.908 0.0332813 27.091 0 27.2741 0C27.3573 0 27.4571 0.0166407 27.5403 0.0332813ZM50.7208 2.71243C47.0432 3.26157 43.3656 3.5611 39.6547 3.5611C35.9605 3.5611 32.2829 3.27821 28.6053 2.71243C28.9382 5.17525 30.0864 7.37182 31.7837 9.05252C33.7972 11.066 36.5929 12.2975 39.6547 12.2975C42.7333 12.2975 45.5289 11.066 47.5424 9.05252C49.2398 7.37182 50.388 5.17525 50.7208 2.71243Z" fill="white"/>
</svg>
