<svg width="67" height="56" viewBox="0 0 67 56" fill="none" xmlns="http://www.w3.org/2000/svg">
<path d="M64.05 3.128C64.05 3.128 58.45 6.4358 55.3365 7.37375C53.6652 5.45209 51.4441 4.09007 48.9735 3.4719C46.5029 2.85372 43.9021 3.00922 41.5228 3.91736C39.1434 4.8255 37.1004 6.44247 35.67 8.54957C34.2396 10.6567 33.4909 13.1522 33.525 15.6988V18.4738C28.6483 18.6002 23.816 17.5186 19.4585 15.3254C15.1011 13.1321 11.3536 9.89522 8.55 5.903C8.55 5.903 -2.55 30.878 22.425 41.978C16.71 45.8574 9.90186 47.8025 3 47.528C27.975 61.403 58.5 47.528 58.5 15.6155C58.5 14.8441 58.4223 14.0726 58.278 13.3123C61.1085 10.5206 64.05 3.128 64.05 3.128Z" stroke="#525252" stroke-width="5" stroke-linecap="round" stroke-linejoin="round"/>
</svg>
